{"accessors":[{"bufferView":1,"byteOffset":0,"componentType":5126,"normalized":false,"count":213398,"type":"VEC3","max":[0.9485430121421814,0.28575098514556885,0.6353309750556946],"min":[-0.9504830241203308,-0.2887069880962372,-0.6355080008506775]},{"bufferView":2,"byteOffset":0,"componentType":5126,"normalized":false,"count":213398,"type":"VEC2","max":[0.9985259771347046,0.9999610185623169],"min":[2.700000004551839e-05,2.4974346160888672e-05]},{"bufferView":3,"byteOffset":0,"componentType":5126,"normalized":false,"count":213398,"type":"VEC3","max":[1.0,1.0,0.9999998807907104],"min":[-0.999998927116394,-1.0,-0.9999997615814209]},{"bufferView":0,"byteOffset":0,"componentType":5125,"normalized":false,"count":1111308,"type":"SCALAR"}],"asset":{"generator":"pygltflib@v1.16.5","version":"2.0"},"bufferViews":[{"buffer":0,"byteOffset":0,"byteLength":4445232,"target":34963},{"buffer":0,"byteOffset":4445232,"byteLength":2560776,"target":34962},{"buffer":1,"byteOffset":0,"byteLength":1707184,"target":34962},{"buffer":1,"byteOffset":1707184,"byteLength":2560776,"target":34962},{"buffer":2,"byteOffset":0,"byteLength":4506337},{"buffer":2,"byteOffset":4506340,"byteLength":1510593},{"buffer":3,"byteOffset":0,"byteLength":3930641},{"buffer":3,"byteOffset":3930644,"byteLength":67300}],"buffers":[{"uri":"part-0.bin","byteLength":7006008},{"uri":"part-1.bin","byteLength":4267960},{"uri":"part-2.bin","byteLength":6016933},{"uri":"part-3.bin","byteLength":3997944}],"images":[{"mimeType":"image/jpeg","bufferView":4},{"mimeType":"image/jpeg","bufferView":5},{"mimeType":"image/jpeg","bufferView":6},{"mimeType":"image/jpeg","bufferView":7}],"materials":[{"pbrMetallicRoughness":{"baseColorFactor":[1.0,1.0,1.0,1.0],"metallicFactor":1.0,"roughnessFactor":1.0,"baseColorTexture":{"index":0,"texCoord":0},"metallicRoughnessTexture":{"index":1,"texCoord":0}},"normalTexture":{"index":2,"texCoord":0},"emissiveFactor":[1.0,1.0,1.0],"emissiveTexture":{"index":3,"texCoord":0},"alphaMode":"OPAQUE","doubleSided":true}],"meshes":[{"primitives":[{"attributes":{"POSITION":0,"NORMAL":2,"TEXCOORD_0":1},"indices":3,"mode":4,"material":0}]}],"nodes":[{"mesh":0,"matrix":[1.0,0.0,0.0,0.0,0.0,1.0,0.0,0.0,0.0,0.0,1.0,0.0,0.0,0.0,0.0,1.0]}],"samplers":[{"magFilter":9729,"minFilter":9987,"wrapS":10497,"wrapT":10497},{"magFilter":9729,"minFilter":9987,"wrapS":10497,"wrapT":10497},{"magFilter":9729,"minFilter":9987,"wrapS":10497,"wrapT":10497},{"magFilter":9729,"minFilter":9987,"wrapS":10497,"wrapT":10497}],"scene":0,"scenes":[{"nodes":[0]}],"textures":[{"sampler":0,"source":0},{"sampler":1,"source":1},{"sampler":2,"source":2},{"sampler":3,"source":3}]}