{"accessors":[{"bufferView":1,"byteOffset":0,"componentType":5126,"normalized":false,"count":430355,"type":"VEC3","max":[0.9485960006713867,0.4119330048561096,0.5595179796218872],"min":[-0.9503039717674255,-0.4134719967842102,-0.5612859725952148]},{"bufferView":2,"byteOffset":0,"componentType":5126,"normalized":false,"count":430355,"type":"VEC2","max":[0.9999650120735168,0.9999650120735168],"min":[3.5000000934815034e-05,0.0020369887351989746]},{"bufferView":3,"byteOffset":0,"componentType":5126,"normalized":false,"count":430355,"type":"VEC3","max":[1.0,1.0,1.0],"min":[-1.0,-1.0,-1.0]},{"bufferView":0,"byteOffset":0,"componentType":5125,"normalized":false,"count":2256744,"type":"SCALAR"}],"asset":{"generator":"pygltflib@v1.16.5","version":"2.0"},"bufferViews":[{"buffer":0,"byteOffset":0,"byteLength":9026976,"target":34963},{"buffer":1,"byteOffset":0,"byteLength":5164260,"target":34962},{"buffer":2,"byteOffset":0,"byteLength":3442840,"target":34962},{"buffer":3,"byteOffset":0,"byteLength":5164260,"target":34962},{"buffer":4,"byteOffset":0,"byteLength":3768184},{"buffer":5,"byteOffset":0,"byteLength":1836651},{"buffer":6,"byteOffset":0,"byteLength":3705860},{"buffer":7,"byteOffset":0,"byteLength":70804}],"buffers":[{"byteLength":9026976,"uri":"part-0.bin"},{"byteLength":5164260,"uri":"part-1.bin"},{"byteLength":3442840,"uri":"part-2.bin"},{"byteLength":5164260,"uri":"part-3.bin"},{"byteLength":3768184,"uri":"part-4.bin"},{"byteLength":1836651,"uri":"part-5.bin"},{"byteLength":3705860,"uri":"part-6.bin"},{"byteLength":70804,"uri":"part-7.bin"}],"images":[{"mimeType":"image/jpeg","bufferView":4},{"mimeType":"image/jpeg","bufferView":5},{"mimeType":"image/jpeg","bufferView":6},{"mimeType":"image/jpeg","bufferView":7}],"materials":[{"pbrMetallicRoughness":{"baseColorFactor":[1.0,1.0,1.0,1.0],"metallicFactor":1.0,"roughnessFactor":1.0,"baseColorTexture":{"index":0,"texCoord":0},"metallicRoughnessTexture":{"index":1,"texCoord":0}},"normalTexture":{"index":2,"texCoord":0},"emissiveFactor":[1.0,1.0,1.0],"emissiveTexture":{"index":3,"texCoord":0},"alphaMode":"OPAQUE","doubleSided":true}],"meshes":[{"primitives":[{"attributes":{"POSITION":0,"NORMAL":2,"TEXCOORD_0":1},"indices":3,"mode":4,"material":0}]}],"nodes":[{"mesh":0,"matrix":[1.0,0.0,0.0,0.0,0.0,1.0,0.0,0.0,0.0,0.0,1.0,0.0,0.0,0.0,0.0,1.0]}],"samplers":[{"magFilter":9729,"minFilter":9987,"wrapS":10497,"wrapT":10497},{"magFilter":9729,"minFilter":9987,"wrapS":10497,"wrapT":10497},{"magFilter":9729,"minFilter":9987,"wrapS":10497,"wrapT":10497},{"magFilter":9729,"minFilter":9987,"wrapS":10497,"wrapT":10497}],"scene":0,"scenes":[{"nodes":[0]}],"textures":[{"sampler":0,"source":0},{"sampler":1,"source":1},{"sampler":2,"source":2},{"sampler":3,"source":3}]}