{"accessors":[{"bufferView":1,"byteOffset":0,"componentType":5126,"normalized":false,"count":479763,"type":"VEC3","max":[0.9485939741134644,0.823930025100708,0.5072259902954102],"min":[-0.9506130218505859,-0.825689971446991,-0.50901198387146]},{"bufferView":2,"byteOffset":0,"componentType":5126,"normalized":false,"count":479763,"type":"VEC2","max":[0.9999719858169556,0.9999719858169556],"min":[3.300000025774352e-05,0.001555025577545166]},{"bufferView":3,"byteOffset":0,"componentType":5126,"normalized":false,"count":479763,"type":"VEC3","max":[1.0,1.0,1.0],"min":[-1.0,-1.0,-1.0]},{"bufferView":0,"byteOffset":0,"componentType":5125,"normalized":false,"count":2611308,"type":"SCALAR"}],"asset":{"generator":"pygltflib@v1.16.5","version":"2.0"},"bufferViews":[{"buffer":0,"byteOffset":0,"byteLength":10445232,"target":34963},{"buffer":1,"byteOffset":0,"byteLength":5757156,"target":34962},{"buffer":2,"byteOffset":0,"byteLength":3838104,"target":34962},{"buffer":3,"byteOffset":0,"byteLength":5757156,"target":34962},{"buffer":4,"byteOffset":0,"byteLength":3434119},{"buffer":5,"byteOffset":0,"byteLength":2048109},{"buffer":6,"byteOffset":0,"byteLength":3325884},{"buffer":7,"byteOffset":0,"byteLength":66243}],"buffers":[{"byteLength":10445232,"uri":"part-0.bin"},{"byteLength":5757156,"uri":"part-1.bin"},{"byteLength":3838104,"uri":"part-2.bin"},{"byteLength":5757156,"uri":"part-3.bin"},{"byteLength":3434119,"uri":"part-4.bin"},{"byteLength":2048109,"uri":"part-5.bin"},{"byteLength":3325884,"uri":"part-6.bin"},{"byteLength":66243,"uri":"part-7.bin"}],"images":[{"mimeType":"image/jpeg","bufferView":4},{"mimeType":"image/jpeg","bufferView":5},{"mimeType":"image/jpeg","bufferView":6},{"mimeType":"image/jpeg","bufferView":7}],"materials":[{"pbrMetallicRoughness":{"baseColorFactor":[1.0,1.0,1.0,1.0],"metallicFactor":1.0,"roughnessFactor":1.0,"baseColorTexture":{"index":0,"texCoord":0},"metallicRoughnessTexture":{"index":1,"texCoord":0}},"normalTexture":{"index":2,"texCoord":0},"emissiveFactor":[1.0,1.0,1.0],"emissiveTexture":{"index":3,"texCoord":0},"alphaMode":"OPAQUE","doubleSided":true}],"meshes":[{"primitives":[{"attributes":{"POSITION":0,"NORMAL":2,"TEXCOORD_0":1},"indices":3,"mode":4,"material":0}]}],"nodes":[{"mesh":0,"matrix":[1.0,0.0,0.0,0.0,0.0,1.0,0.0,0.0,0.0,0.0,1.0,0.0,0.0,0.0,0.0,1.0]}],"samplers":[{"magFilter":9729,"minFilter":9987,"wrapS":10497,"wrapT":10497},{"magFilter":9729,"minFilter":9987,"wrapS":10497,"wrapT":10497},{"magFilter":9729,"minFilter":9987,"wrapS":10497,"wrapT":10497},{"magFilter":9729,"minFilter":9987,"wrapS":10497,"wrapT":10497}],"scene":0,"scenes":[{"nodes":[0]}],"textures":[{"sampler":0,"source":0},{"sampler":1,"source":1},{"sampler":2,"source":2},{"sampler":3,"source":3}]}